<svg width="9916" height="7120" viewBox="0 0 9916 7120" fill="none" xmlns="http://www.w3.org/2000/svg">
<g clip-path="url(#clip0)">
<path opacity="0.1" d="M4958 7105.84C7696.23 7105.84 9916 6836.05 9916 6503.24C9916 6170.44 7696.23 5900.65 4958 5900.65C2219.77 5900.65 0 6170.44 0 6503.24C0 6836.05 2219.77 7105.84 4958 7105.84Z" fill="#2BBD66"/>
<path opacity="0.1" d="M5651.04 843.219C5161.12 826.21 4694.51 668.061 4248.94 495.035C3803.37 322.009 3362.02 130.31 2883.84 38.6259C2576.28 -20.3434 2224.55 -28.6868 1976.73 136.202C1738.26 294.873 1661.2 568.774 1619.77 822.92C1588.6 1014.13 1570.28 1215.37 1655.68 1394.38C1714.98 1518.66 1820.26 1623.12 1893.06 1742.16C2146.4 2156.37 1967.34 2667.13 1692.8 3071.57C1564.02 3261.28 1414.65 3442.27 1315.27 3644.22C1215.9 3846.18 1169.93 4077.59 1256.87 4283.6C1343.05 4487.79 1548.42 4641.17 1770.88 4749.05C2222.71 4968.14 2755.14 5030.85 3274.33 5066.37C4423.62 5144.99 5579.05 5110.95 6731.39 5076.86C7157.84 5064.24 7586.18 5051.46 8005.7 4985.52C8238.67 4948.9 8479.2 4890.79 8648.33 4750.49C8863.05 4572.38 8916.27 4270.78 8772.39 4047.46C8531.06 3672.85 7863.8 3579.8 7695.13 3177.78C7602.28 2956.49 7697.63 2710 7832.56 2504.77C8122.01 2064.51 8607.18 1678.26 8632.74 1175.04C8650.29 829.411 8417.06 483.277 8056.43 319.748C7678.43 148.337 7154.26 169.899 6875.39 453.642C6588.24 745.817 6083.61 858.236 5651.04 843.219Z" fill="#2BBD66"/>
<path d="M4812.22 6247.13C4996.19 6247.13 5145.32 6088.84 5145.32 5893.58C5145.32 5698.31 4996.19 5540.02 4812.22 5540.02C4628.25 5540.02 4479.11 5698.31 4479.11 5893.58C4479.11 6088.84 4628.25 6247.13 4812.22 6247.13Z" fill="#FBD56F"/>
<path opacity="0.1" d="M4812.22 6247.13C4996.19 6247.13 5145.32 6088.84 5145.32 5893.58C5145.32 5698.31 4996.19 5540.02 4812.22 5540.02C4628.25 5540.02 4479.11 5698.31 4479.11 5893.58C4479.11 6088.84 4628.25 6247.13 4812.22 6247.13Z" fill="black"/>
<path d="M4869.7 6247.13C5053.67 6247.13 5202.81 6092.37 5202.81 5901.45C5202.81 5710.54 5053.67 5555.77 4869.7 5555.77C4685.73 5555.77 4536.59 5710.54 4536.59 5901.45C4536.59 6092.37 4685.73 6247.13 4869.7 6247.13Z" fill="#FBD56F"/>
<path d="M5004.62 6214.72L4969.97 6195.43C4969.97 6195.43 4953.77 6263.05 4959.06 6311.24C4959.59 6316.13 4961.6 6320.74 4964.82 6324.45C4968.05 6328.16 4972.34 6330.79 4977.11 6331.98C5056.82 6351.78 5436.72 6436.11 5697.97 6317.33C5701.76 6315.6 5705.03 6312.92 5707.47 6309.54C5709.9 6306.16 5711.41 6302.21 5711.85 6298.07C5715.06 6268.45 5703.72 6207.33 5699.19 6195.43C5689.44 6169.8 5004.62 6214.72 5004.62 6214.72Z" fill="#FBD56F"/>
<path opacity="0.1" d="M5004.62 6214.72L4969.97 6195.43C4969.97 6195.43 4953.77 6263.05 4959.06 6311.24C4959.59 6316.13 4961.6 6320.74 4964.82 6324.45C4968.05 6328.16 4972.34 6330.79 4977.11 6331.98C5056.82 6351.78 5436.72 6436.11 5697.97 6317.33C5701.76 6315.6 5705.03 6312.92 5707.47 6309.54C5709.9 6306.16 5711.41 6302.21 5711.85 6298.07C5715.06 6268.45 5703.72 6207.33 5699.19 6195.43C5689.44 6169.8 5004.62 6214.72 5004.62 6214.72Z" fill="black"/>
<path d="M5334.58 6277.61C5535.94 6277.61 5699.18 6240.81 5699.18 6195.43C5699.18 6150.04 5535.94 6113.25 5334.58 6113.25C5133.21 6113.25 4969.97 6150.04 4969.97 6195.43C4969.97 6240.81 5133.21 6277.61 5334.58 6277.61Z" fill="#FBD56F"/>
<path d="M5143.92 6093.47L5109.27 6074.17C5109.27 6074.17 5093.07 6141.8 5098.36 6189.99C5098.88 6194.88 5100.89 6199.49 5104.12 6203.2C5107.35 6206.91 5111.64 6209.54 5116.41 6210.73C5196.12 6230.53 5576.02 6314.86 5837.27 6196.08C5841.06 6194.35 5844.33 6191.66 5846.76 6188.29C5849.2 6184.91 5850.71 6180.96 5851.15 6176.82C5854.36 6147.2 5843.01 6086.08 5838.49 6074.17C5828.74 6048.55 5143.92 6093.47 5143.92 6093.47Z" fill="#FBD56F"/>
<path opacity="0.1" d="M5143.92 6093.47L5109.27 6074.17C5109.27 6074.17 5093.07 6141.8 5098.36 6189.99C5098.88 6194.88 5100.89 6199.49 5104.12 6203.2C5107.35 6206.91 5111.64 6209.54 5116.41 6210.73C5196.12 6230.53 5576.02 6314.86 5837.27 6196.08C5841.06 6194.35 5844.33 6191.66 5846.76 6188.29C5849.2 6184.91 5850.71 6180.96 5851.15 6176.82C5854.36 6147.2 5843.01 6086.08 5838.49 6074.17C5828.74 6048.55 5143.92 6093.47 5143.92 6093.47Z" fill="black"/>
<path d="M5473.89 6156.36C5675.25 6156.36 5838.49 6119.56 5838.49 6074.17C5838.49 6028.79 5675.25 5991.99 5473.89 5991.99C5272.52 5991.99 5109.28 6028.79 5109.28 6074.17C5109.28 6119.56 5272.52 6156.36 5473.89 6156.36Z" fill="#FBD56F"/>
<path d="M5267.07 5934.11L5232.42 5914.81C5232.42 5914.81 5216.21 5982.44 5221.51 6030.63C5222.03 6035.52 5224.04 6040.13 5227.27 6043.84C5230.49 6047.55 5234.78 6050.18 5239.55 6051.37C5319.26 6071.17 5699.17 6155.5 5960.41 6036.72C5964.2 6034.99 5967.48 6032.3 5969.91 6028.93C5972.34 6025.55 5973.86 6021.6 5974.3 6017.46C5977.5 5987.84 5966.16 5926.72 5961.63 5914.81C5951.89 5889.19 5267.07 5934.11 5267.07 5934.11Z" fill="#FBD56F"/>
<path opacity="0.1" d="M5267.07 5934.11L5232.42 5914.81C5232.42 5914.81 5216.21 5982.44 5221.51 6030.63C5222.03 6035.52 5224.04 6040.13 5227.27 6043.84C5230.49 6047.55 5234.78 6050.18 5239.55 6051.37C5319.26 6071.17 5699.17 6155.5 5960.41 6036.72C5964.2 6034.99 5967.48 6032.3 5969.91 6028.93C5972.34 6025.55 5973.86 6021.6 5974.3 6017.46C5977.5 5987.84 5966.16 5926.72 5961.63 5914.81C5951.89 5889.19 5267.07 5934.11 5267.07 5934.11Z" fill="black"/>
<path d="M5597.03 5997C5798.4 5997 5961.64 5960.2 5961.64 5914.81C5961.64 5869.43 5798.4 5832.63 5597.03 5832.63C5395.66 5832.63 5232.42 5869.43 5232.42 5914.81C5232.42 5960.2 5395.66 5997 5597.03 5997Z" fill="#FBD56F"/>
<path d="M5130.69 5768.21L5096.04 5748.92C5096.04 5748.92 5079.84 5816.55 5085.13 5864.74C5085.66 5869.63 5087.67 5874.24 5090.89 5877.95C5094.12 5881.66 5098.41 5884.29 5103.18 5885.48C5182.89 5905.27 5562.79 5989.6 5824.04 5870.83C5827.83 5869.1 5831.1 5866.41 5833.54 5863.03C5835.97 5859.66 5837.48 5855.7 5837.93 5851.56C5841.13 5821.94 5829.79 5760.83 5825.26 5748.92C5815.51 5723.3 5130.69 5768.21 5130.69 5768.21Z" fill="#FBD56F"/>
<path opacity="0.1" d="M5130.69 5768.21L5096.04 5748.92C5096.04 5748.92 5079.84 5816.55 5085.13 5864.74C5085.66 5869.63 5087.67 5874.24 5090.89 5877.95C5094.12 5881.66 5098.41 5884.29 5103.18 5885.48C5182.89 5905.27 5562.79 5989.6 5824.04 5870.83C5827.83 5869.1 5831.1 5866.41 5833.54 5863.03C5835.97 5859.66 5837.48 5855.7 5837.93 5851.56C5841.13 5821.94 5829.79 5760.83 5825.26 5748.92C5815.51 5723.3 5130.69 5768.21 5130.69 5768.21Z" fill="black"/>
<path d="M5460.65 5831.1C5662.01 5831.1 5825.25 5794.31 5825.25 5748.92C5825.25 5703.53 5662.01 5666.74 5460.65 5666.74C5259.28 5666.74 5096.04 5703.53 5096.04 5748.92C5096.04 5794.31 5259.28 5831.1 5460.65 5831.1Z" fill="#FBD56F"/>
<path d="M5437.5 5635.08L5402.85 5615.79C5402.85 5615.79 5386.64 5683.42 5391.94 5731.61C5392.46 5736.5 5394.47 5741.11 5397.7 5744.82C5400.93 5748.52 5405.21 5751.15 5409.98 5752.35C5489.69 5772.14 5869.6 5856.47 6130.85 5737.69C6134.63 5735.97 6137.91 5733.28 6140.34 5729.9C6142.77 5726.52 6144.29 5722.57 6144.73 5718.43C6147.93 5688.81 6136.59 5627.7 6132.06 5615.79C6122.32 5590.16 5437.5 5635.08 5437.5 5635.08Z" fill="#FBD56F"/>
<path opacity="0.1" d="M5437.5 5635.08L5402.85 5615.79C5402.85 5615.79 5386.64 5683.42 5391.94 5731.61C5392.46 5736.5 5394.47 5741.11 5397.7 5744.82C5400.93 5748.52 5405.21 5751.15 5409.98 5752.35C5489.69 5772.14 5869.6 5856.47 6130.85 5737.69C6134.63 5735.97 6137.91 5733.28 6140.34 5729.9C6142.77 5726.52 6144.29 5722.57 6144.73 5718.43C6147.93 5688.81 6136.59 5627.7 6132.06 5615.79C6122.32 5590.16 5437.5 5635.08 5437.5 5635.08Z" fill="black"/>
<path d="M5767.45 5697.97C5968.82 5697.97 6132.06 5661.18 6132.06 5615.79C6132.06 5570.4 5968.82 5533.61 5767.45 5533.61C5566.09 5533.61 5402.84 5570.4 5402.84 5615.79C5402.84 5661.18 5566.09 5697.97 5767.45 5697.97Z" fill="#FBD56F"/>
<path d="M5230.2 5545.6L5195.55 5526.31C5195.55 5526.31 5179.35 5593.94 5184.64 5642.13C5185.17 5647.02 5187.18 5651.63 5190.4 5655.34C5193.63 5659.04 5197.92 5661.67 5202.69 5662.87C5282.4 5682.66 5662.3 5766.99 5923.55 5648.21C5927.34 5646.48 5930.61 5643.8 5933.04 5640.42C5935.48 5637.04 5936.99 5633.09 5937.43 5628.95C5940.64 5599.33 5929.29 5538.22 5924.77 5526.31C5915.02 5500.68 5230.2 5545.6 5230.2 5545.6Z" fill="#FBD56F"/>
<path opacity="0.1" d="M5230.2 5545.6L5195.55 5526.31C5195.55 5526.31 5179.35 5593.94 5184.64 5642.13C5185.17 5647.02 5187.18 5651.63 5190.4 5655.34C5193.63 5659.04 5197.92 5661.67 5202.69 5662.87C5282.4 5682.66 5662.3 5766.99 5923.55 5648.21C5927.34 5646.48 5930.61 5643.8 5933.04 5640.42C5935.48 5637.04 5936.99 5633.09 5937.43 5628.95C5940.64 5599.33 5929.29 5538.22 5924.77 5526.31C5915.02 5500.68 5230.2 5545.6 5230.2 5545.6Z" fill="black"/>
<path d="M5560.17 5608.49C5761.53 5608.49 5924.77 5571.7 5924.77 5526.31C5924.77 5480.92 5761.53 5444.13 5560.17 5444.13C5358.8 5444.13 5195.56 5480.92 5195.56 5526.31C5195.56 5571.7 5358.8 5608.49 5560.17 5608.49Z" fill="#FBD56F"/>
<path d="M5368.6 5372.85L5333.95 5353.56C5333.95 5353.56 5317.74 5421.19 5323.04 5469.38C5323.56 5474.27 5325.57 5478.88 5328.8 5482.59C5332.03 5486.3 5336.31 5488.93 5341.08 5490.12C5420.79 5509.91 5800.7 5594.24 6061.95 5475.47C6065.73 5473.74 6069.01 5471.05 6071.44 5467.67C6073.88 5464.3 6075.39 5460.34 6075.83 5456.2C6079.04 5426.59 6067.69 5365.47 6063.16 5353.56C6053.42 5327.93 5368.6 5372.85 5368.6 5372.85Z" fill="#FBD56F"/>
<path opacity="0.1" d="M5368.6 5372.85L5333.95 5353.56C5333.95 5353.56 5317.74 5421.19 5323.04 5469.38C5323.56 5474.27 5325.57 5478.88 5328.8 5482.59C5332.03 5486.3 5336.31 5488.93 5341.08 5490.12C5420.79 5509.91 5800.7 5594.24 6061.95 5475.47C6065.73 5473.74 6069.01 5471.05 6071.44 5467.67C6073.88 5464.3 6075.39 5460.34 6075.83 5456.2C6079.04 5426.59 6067.69 5365.47 6063.16 5353.56C6053.42 5327.93 5368.6 5372.85 5368.6 5372.85Z" fill="black"/>
<path d="M5698.56 5435.74C5899.93 5435.74 6063.17 5398.95 6063.17 5353.56C6063.17 5308.18 5899.93 5271.38 5698.56 5271.38C5497.2 5271.38 5333.96 5308.18 5333.96 5353.56C5333.96 5398.95 5497.2 5435.74 5698.56 5435.74Z" fill="#FBD56F"/>
<path d="M5436.87 5167.81L5402.22 5148.52C5402.22 5148.52 5386.01 5216.14 5391.31 5264.34C5391.83 5269.22 5393.84 5273.83 5397.07 5277.54C5400.3 5281.25 5404.58 5283.88 5409.35 5285.07C5489.06 5304.87 5868.97 5389.2 6130.22 5270.42C6134.01 5268.69 6137.28 5266.01 6139.71 5262.63C6142.15 5259.25 6143.66 5255.3 6144.1 5251.16C6147.31 5221.54 6135.96 5160.42 6131.43 5148.52C6121.69 5122.89 5436.87 5167.81 5436.87 5167.81Z" fill="#FBD56F"/>
<path opacity="0.1" d="M5436.87 5167.81L5402.22 5148.52C5402.22 5148.52 5386.01 5216.14 5391.31 5264.34C5391.83 5269.22 5393.84 5273.83 5397.07 5277.54C5400.3 5281.25 5404.58 5283.88 5409.35 5285.07C5489.06 5304.87 5868.97 5389.2 6130.22 5270.42C6134.01 5268.69 6137.28 5266.01 6139.71 5262.63C6142.15 5259.25 6143.66 5255.3 6144.1 5251.16C6147.31 5221.54 6135.96 5160.42 6131.43 5148.52C6121.69 5122.89 5436.87 5167.81 5436.87 5167.81Z" fill="black"/>
<path d="M5766.82 5230.7C5968.19 5230.7 6131.43 5193.9 6131.43 5148.52C6131.43 5103.13 5968.19 5066.34 5766.82 5066.34C5565.46 5066.34 5402.22 5103.13 5402.22 5148.52C5402.22 5193.9 5565.46 5230.7 5766.82 5230.7Z" fill="#FBD56F"/>
<path d="M6052.36 6262.27L6017.71 6242.98C6017.71 6242.98 6001.5 6310.61 6006.8 6358.8C6007.32 6363.69 6009.33 6368.3 6012.56 6372.01C6015.79 6375.72 6020.07 6378.35 6024.84 6379.54C6104.55 6399.33 6484.46 6483.66 6745.71 6364.89C6749.49 6363.16 6752.77 6360.47 6755.2 6357.09C6757.64 6353.72 6759.15 6349.76 6759.59 6345.62C6762.8 6316.01 6751.45 6254.89 6746.92 6242.98C6737.18 6217.36 6052.36 6262.27 6052.36 6262.27Z" fill="#FBD56F"/>
<path opacity="0.1" d="M6052.36 6262.27L6017.71 6242.98C6017.71 6242.98 6001.5 6310.61 6006.8 6358.8C6007.32 6363.69 6009.33 6368.3 6012.56 6372.01C6015.79 6375.72 6020.07 6378.35 6024.84 6379.54C6104.55 6399.33 6484.46 6483.66 6745.71 6364.89C6749.49 6363.16 6752.77 6360.47 6755.2 6357.09C6757.64 6353.72 6759.15 6349.76 6759.59 6345.62C6762.8 6316.01 6751.45 6254.89 6746.92 6242.98C6737.18 6217.36 6052.36 6262.27 6052.36 6262.27Z" fill="black"/>
<path d="M6382.31 6325.16C6583.68 6325.16 6746.92 6288.37 6746.92 6242.98C6746.92 6197.59 6583.68 6160.8 6382.31 6160.8C6180.94 6160.8 6017.7 6197.59 6017.7 6242.98C6017.7 6288.37 6180.94 6325.16 6382.31 6325.16Z" fill="#FBD56F"/>
<path d="M6175.5 6102.91L6140.85 6083.62C6140.85 6083.62 6124.65 6151.25 6129.95 6199.44C6130.47 6204.33 6132.48 6208.94 6135.7 6212.65C6138.93 6216.36 6143.22 6218.99 6147.99 6220.18C6227.7 6239.97 6607.61 6324.3 6868.85 6205.52C6872.64 6203.8 6875.91 6201.11 6878.35 6197.73C6880.78 6194.36 6882.3 6190.4 6882.74 6186.26C6885.94 6156.64 6874.6 6095.53 6870.07 6083.62C6860.33 6057.99 6175.5 6102.91 6175.5 6102.91Z" fill="#FBD56F"/>
<path opacity="0.1" d="M6175.5 6102.91L6140.85 6083.62C6140.85 6083.62 6124.65 6151.25 6129.95 6199.44C6130.47 6204.33 6132.48 6208.94 6135.7 6212.65C6138.93 6216.36 6143.22 6218.99 6147.99 6220.18C6227.7 6239.97 6607.61 6324.3 6868.85 6205.52C6872.64 6203.8 6875.91 6201.11 6878.35 6197.73C6880.78 6194.36 6882.3 6190.4 6882.74 6186.26C6885.94 6156.64 6874.6 6095.53 6870.07 6083.62C6860.33 6057.99 6175.5 6102.91 6175.5 6102.91Z" fill="black"/>
<path d="M6505.46 6165.8C6706.82 6165.8 6870.06 6129.01 6870.06 6083.62C6870.06 6038.23 6706.82 6001.44 6505.46 6001.44C6304.09 6001.44 6140.85 6038.23 6140.85 6083.62C6140.85 6129.01 6304.09 6165.8 6505.46 6165.8Z" fill="#FBD56F"/>
<path d="M6039.13 5937.02L6004.48 5917.73C6004.48 5917.73 5988.27 5985.35 5993.57 6033.55C5994.09 6038.43 5996.1 6043.04 5999.33 6046.75C6002.56 6050.46 6006.85 6053.09 6011.61 6054.29C6091.32 6074.08 6471.23 6158.41 6732.48 6039.63C6736.27 6037.9 6739.54 6035.22 6741.97 6031.84C6744.41 6028.46 6745.92 6024.51 6746.36 6020.37C6749.57 5990.75 6738.22 5929.64 6733.69 5917.73C6723.95 5892.1 6039.13 5937.02 6039.13 5937.02Z" fill="#FBD56F"/>
<path opacity="0.1" d="M6039.13 5937.02L6004.48 5917.73C6004.48 5917.73 5988.27 5985.35 5993.57 6033.55C5994.09 6038.43 5996.1 6043.04 5999.33 6046.75C6002.56 6050.46 6006.85 6053.09 6011.61 6054.29C6091.32 6074.08 6471.23 6158.41 6732.48 6039.63C6736.27 6037.9 6739.54 6035.22 6741.97 6031.84C6744.41 6028.46 6745.92 6024.51 6746.36 6020.37C6749.57 5990.75 6738.22 5929.64 6733.69 5917.73C6723.95 5892.1 6039.13 5937.02 6039.13 5937.02Z" fill="black"/>
<path d="M6369.08 5999.91C6570.45 5999.91 6733.69 5963.11 6733.69 5917.73C6733.69 5872.34 6570.45 5835.55 6369.08 5835.55C6167.72 5835.55 6004.48 5872.34 6004.48 5917.73C6004.48 5963.11 6167.72 5999.91 6369.08 5999.91Z" fill="#FBD56F"/>
<path d="M6345.93 5803.89L6311.28 5784.6C6311.28 5784.6 6295.07 5852.22 6300.37 5900.41C6300.89 5905.3 6302.9 5909.91 6306.13 5913.62C6309.35 5917.33 6313.64 5919.96 6318.41 5921.15C6398.12 5940.95 6778.03 6025.28 7039.27 5906.5C7043.06 5904.77 7046.33 5902.09 7048.77 5898.71C7051.2 5895.33 7052.72 5891.38 7053.16 5887.24C7056.36 5857.62 7045.02 5796.5 7040.49 5784.6C7030.75 5758.97 6345.93 5803.89 6345.93 5803.89Z" fill="#FBD56F"/>
<path opacity="0.1" d="M6345.93 5803.89L6311.28 5784.6C6311.28 5784.6 6295.07 5852.22 6300.37 5900.41C6300.89 5905.3 6302.9 5909.91 6306.13 5913.62C6309.35 5917.33 6313.64 5919.96 6318.41 5921.15C6398.12 5940.95 6778.03 6025.28 7039.27 5906.5C7043.06 5904.77 7046.33 5902.09 7048.77 5898.71C7051.2 5895.33 7052.72 5891.38 7053.16 5887.24C7056.36 5857.62 7045.02 5796.5 7040.49 5784.6C7030.75 5758.97 6345.93 5803.89 6345.93 5803.89Z" fill="black"/>
<path d="M6675.89 5866.78C6877.26 5866.78 7040.5 5829.98 7040.5 5784.6C7040.5 5739.21 6877.26 5702.42 6675.89 5702.42C6474.52 5702.42 6311.28 5739.21 6311.28 5784.6C6311.28 5829.98 6474.52 5866.78 6675.89 5866.78Z" fill="#FBD56F"/>
<path d="M6138.64 5714.41L6103.99 5695.12C6103.99 5695.12 6087.78 5762.74 6093.08 5810.93C6093.6 5815.82 6095.61 5820.43 6098.84 5824.14C6102.07 5827.85 6106.35 5830.48 6111.12 5831.67C6190.83 5851.47 6570.74 5935.8 6831.99 5817.02C6835.77 5815.29 6839.05 5812.61 6841.48 5809.23C6843.92 5805.85 6845.43 5801.9 6845.87 5797.76C6849.08 5768.14 6837.73 5707.02 6833.2 5695.12C6823.46 5669.49 6138.64 5714.41 6138.64 5714.41Z" fill="#FBD56F"/>
<path opacity="0.1" d="M6138.64 5714.41L6103.99 5695.12C6103.99 5695.12 6087.78 5762.74 6093.08 5810.93C6093.6 5815.82 6095.61 5820.43 6098.84 5824.14C6102.07 5827.85 6106.35 5830.48 6111.12 5831.67C6190.83 5851.47 6570.74 5935.8 6831.99 5817.02C6835.77 5815.29 6839.05 5812.61 6841.48 5809.23C6843.92 5805.85 6845.43 5801.9 6845.87 5797.76C6849.08 5768.14 6837.73 5707.02 6833.2 5695.12C6823.46 5669.49 6138.64 5714.41 6138.64 5714.41Z" fill="black"/>
<path d="M6468.6 5777.3C6669.97 5777.3 6833.21 5740.5 6833.21 5695.11C6833.21 5649.73 6669.97 5612.93 6468.6 5612.93C6267.24 5612.93 6104 5649.73 6104 5695.11C6104 5740.5 6267.24 5777.3 6468.6 5777.3Z" fill="#FBD56F"/>
<path d="M6277.04 5541.66L6242.39 5522.37C6242.39 5522.37 6226.18 5590 6231.48 5638.19C6232 5643.08 6234.01 5647.69 6237.24 5651.4C6240.46 5655.1 6244.75 5657.73 6249.52 5658.93C6329.23 5678.72 6709.14 5763.05 6970.38 5644.27C6974.17 5642.54 6977.44 5639.86 6979.88 5636.48C6982.31 5633.1 6983.83 5629.15 6984.27 5625.01C6987.47 5595.39 6976.13 5534.28 6971.6 5522.37C6961.86 5496.74 6277.04 5541.66 6277.04 5541.66Z" fill="#FBD56F"/>
<path opacity="0.1" d="M6277.04 5541.66L6242.39 5522.37C6242.39 5522.37 6226.18 5590 6231.48 5638.19C6232 5643.08 6234.01 5647.69 6237.24 5651.4C6240.46 5655.1 6244.75 5657.73 6249.52 5658.93C6329.23 5678.72 6709.14 5763.05 6970.38 5644.27C6974.17 5642.54 6977.44 5639.86 6979.88 5636.48C6982.31 5633.1 6983.83 5629.15 6984.27 5625.01C6987.47 5595.39 6976.13 5534.28 6971.6 5522.37C6961.86 5496.74 6277.04 5541.66 6277.04 5541.66Z" fill="black"/>
<path d="M6606.99 5604.55C6808.36 5604.55 6971.6 5567.76 6971.6 5522.37C6971.6 5476.98 6808.36 5440.19 6606.99 5440.19C6405.62 5440.19 6242.38 5476.98 6242.38 5522.37C6242.38 5567.76 6405.62 5604.55 6606.99 5604.55Z" fill="#FBD56F"/>
<path d="M6345.3 5336.62L6310.65 5317.32C6310.65 5317.32 6294.44 5384.95 6299.74 5433.14C6300.26 5438.03 6302.27 5442.64 6305.5 5446.35C6308.72 5450.06 6313.01 5452.69 6317.78 5453.88C6397.49 5473.68 6777.4 5558.01 7038.65 5439.23C7042.43 5437.5 7045.71 5434.81 7048.14 5431.44C7050.58 5428.06 7052.09 5424.11 7052.53 5419.97C7055.73 5390.35 7044.39 5329.23 7039.86 5317.32C7030.12 5291.7 6345.3 5336.62 6345.3 5336.62Z" fill="#FBD56F"/>
<path opacity="0.1" d="M6345.3 5336.62L6310.65 5317.32C6310.65 5317.32 6294.44 5384.95 6299.74 5433.14C6300.26 5438.03 6302.27 5442.64 6305.5 5446.35C6308.72 5450.06 6313.01 5452.69 6317.78 5453.88C6397.49 5473.68 6777.4 5558.01 7038.65 5439.23C7042.43 5437.5 7045.71 5434.81 7048.14 5431.44C7050.58 5428.06 7052.09 5424.11 7052.53 5419.97C7055.73 5390.35 7044.39 5329.23 7039.86 5317.32C7030.12 5291.7 6345.3 5336.62 6345.3 5336.62Z" fill="black"/>
<path d="M6675.26 5399.5C6876.63 5399.5 7039.87 5362.71 7039.87 5317.32C7039.87 5271.94 6876.63 5235.14 6675.26 5235.14C6473.89 5235.14 6310.65 5271.94 6310.65 5317.32C6310.65 5362.71 6473.89 5399.5 6675.26 5399.5Z" fill="#FBD56F"/>
<path d="M8542.94 6745.96C8492.18 6744.17 8490.37 6724.49 8425.12 6690.51C8388.29 6671.34 8332.35 6615.65 8290.66 6570.83C8287.32 6567.24 8284.09 6563.73 8280.96 6560.31C8291.99 6560.07 8298.24 6559.95 8298.24 6559.95C8298.24 6559.95 8281.93 6416.88 8296.43 6382.89C8310.93 6348.91 8300.05 6146.81 8300.05 6146.81C8300.05 6146.81 8309.11 5993.01 8292.8 5957.24C8276.49 5921.47 8298.24 5692.54 8298.24 5692.54C8298.24 5692.54 8312.74 5556.62 8316.36 5279.4C8319.99 5002.19 8156.86 4993.25 8156.86 4993.25C8156.86 4993.25 8135.11 4991.56 8102.08 4988.42C8098.91 4988.12 8095.56 4987.79 8092.19 4987.46C8113.57 4942.7 8126.04 4909.19 8126.04 4909.19C8126.04 4909.19 8098.86 4649.86 8091.6 4605.15C8084.35 4560.43 8040.85 4376.22 8040.85 4376.22C8040.85 4376.22 8010.04 4297.53 7991.91 4242.08C7973.79 4186.64 7919.41 4122.26 7919.41 4122.26C7919.41 4122.26 7821.53 3929.1 7794.34 3900.48C7781.73 3887.21 7764.03 3870.47 7748.7 3856.34C7745.93 3853.8 7743.29 3851.38 7740.72 3849.03C7744.83 3828.88 7747 3808.38 7747.21 3787.81C7747.21 3787.81 7645.71 3687.66 7638.46 3662.62C7631.21 3637.58 7535.14 3544.58 7535.14 3544.58C7535.14 3544.58 7480.76 3444.42 7419.14 3442.63C7390.02 3440.98 7360.81 3441.87 7331.85 3445.28C7344.5 3398.43 7359.47 3349.36 7372.91 3307.25C7374.41 3302.55 7375.88 3297.98 7377.33 3293.47C7426.58 3260.17 7465.23 3213.43 7488.68 3158.8C7489.97 3155.89 7491.13 3152.96 7492.3 3150.02C7492.95 3150.04 7493.6 3150.15 7494.25 3150.14C7496.8 3150.11 7499.35 3149.88 7501.87 3149.45C7522.16 3145.96 7539.33 3123.05 7529.98 3104.97C7530.58 3106 7531.45 3106.84 7532.49 3107.41C7533.53 3107.98 7534.71 3108.26 7535.89 3108.22C7542.65 3108 7550.9 3098.22 7552.49 3089.61C7552.76 3088.12 7552.91 3086.61 7553.14 3085.11C7553.43 3083.24 7553.74 3081.38 7553.96 3079.5C7554.17 3077.74 7554.3 3075.97 7554.45 3074.2C7554.6 3072.38 7554.75 3070.55 7554.84 3068.72C7554.92 3067.01 7554.98 3065.3 7555.01 3063.59C7555.04 3061.62 7555.03 3059.65 7555 3057.68C7554.97 3056.1 7554.95 3054.53 7554.87 3052.95C7554.76 3050.55 7554.56 3048.16 7554.34 3045.77C7554.25 3044.79 7554.23 3043.81 7554.12 3042.83L7554.1 3042.97C7553.04 3033.2 7551.09 3023.54 7548.26 3014.13C7538.25 2980.88 7517.23 2947.91 7525.33 2914.16C7525.42 2913.8 7525.58 2913.47 7525.67 2913.11L7525.68 2913.17C7532.43 2886.98 7555.1 2867.96 7568.97 2844.56C7570.29 2842.32 7571.45 2840.02 7572.59 2837.71C7572.8 2837.29 7573.05 2836.88 7573.26 2836.46C7574.09 2834.72 7574.8 2832.93 7575.53 2831.15C7576.01 2830.01 7576.53 2828.89 7576.96 2827.73C7577.54 2826.17 7578.02 2824.58 7578.53 2823C7579 2821.56 7579.49 2820.13 7579.9 2818.67C7580.29 2817.27 7580.6 2815.85 7580.94 2814.43C7581.34 2812.72 7581.75 2811.02 7582.07 2809.3C7582.31 2808.06 7582.49 2806.82 7582.68 2805.57C7582.99 2803.62 7583.27 2801.66 7583.48 2799.7C7583.59 2798.63 7583.67 2797.56 7583.75 2796.49C7583.93 2794.3 7584.05 2792.1 7584.1 2789.89C7584.13 2789.01 7584.14 2788.13 7584.14 2787.25C7584.15 2784.84 7584.08 2782.42 7583.95 2780.01C7583.91 2779.29 7583.88 2778.57 7583.82 2777.85C7583.64 2775.28 7583.37 2772.72 7583.04 2770.16C7582.99 2769.79 7582.98 2769.42 7582.92 2769.05L7582.9 2769.15C7579.83 2746.68 7570.87 2725.41 7556.94 2707.51C7541.07 2688.62 7521.02 2673.68 7498.37 2663.89C7475.73 2654.09 7451.11 2649.71 7426.47 2651.08C7412.85 2652.62 7399.12 2652.87 7385.45 2651.83C7362.69 2648.5 7343.45 2634.05 7325.31 2620.08C7274.71 2581.1 7224.1 2542.12 7173.49 2503.14C7156.56 2488.42 7137.12 2476.87 7116.1 2469.02C7094.64 2462.46 7068.92 2464.72 7053.04 2480.4C7024.62 2508.45 7042.69 2556.72 7031.27 2594.75C7021.39 2627.7 6989.57 2650.02 6956.63 2661.15C6923.68 2672.28 6888.43 2674.72 6854.58 2682.78C6844.51 2684.41 6835.08 2688.74 6827.28 2695.32C6818.51 2705.96 6814.26 2719.61 6815.41 2733.35C6815.21 2767.03 6823.3 2800.25 6838.98 2830.06C6845.38 2842.21 6853.14 2854.48 6859.95 2866.92C6860.51 2867.95 6861.05 2868.98 6861.6 2870.01C6862.36 2871.44 6863.13 2872.87 6863.85 2874.3C6865.03 2876.63 6866.15 2878.96 6867.22 2881.3C6867.68 2882.31 6868.09 2883.32 6868.53 2884.33C6869.24 2885.99 6869.92 2887.65 6870.56 2889.31C6870.97 2890.37 6871.36 2891.43 6871.73 2892.49C6872.42 2894.45 6873.03 2896.41 6873.58 2898.38C6877.21 2909.94 6877.55 2922.29 6874.57 2934.04C6869.35 2953.26 6854.34 2968.07 6841.1 2983.09C6830.3 2994.83 6822.61 3009.08 6818.74 3024.55L6818.67 3024.89C6817.94 3028.49 6817.8 3032.19 6818.26 3035.83C6818.33 3036.28 6818.38 3036.74 6818.47 3037.18C6818.64 3037.99 6818.87 3038.79 6819.14 3039.57C6819.35 3040.14 6819.59 3040.69 6819.85 3041.24C6820.12 3041.87 6820.44 3042.49 6820.8 3043.09C6821.45 3044.09 6822.22 3045 6823.1 3045.81C6823.51 3046.14 6823.93 3046.46 6824.37 3046.75C6825.1 3047.29 6825.88 3047.77 6826.7 3048.18C6827.19 3048.42 6827.7 3048.66 6828.25 3048.86C6829.45 3049.31 6830.69 3049.65 6831.96 3049.88C6832.32 3049.94 6832.62 3050.05 6832.99 3050.11C6834.92 3050.36 6836.87 3050.44 6838.82 3050.35C6839.38 3050.33 6840 3050.27 6840.58 3050.22C6842.45 3050.08 6844.31 3049.85 6846.15 3049.52C6846.83 3049.4 6847.49 3049.29 6848.19 3049.15C6850.87 3048.6 6853.67 3047.92 6856.75 3046.96C6866.93 3043.89 6876.83 3039.97 6886.36 3035.25C6886.35 3036.34 6886.28 3037.42 6886.28 3038.51C6886.28 3040.39 6886.28 3042.36 6886.46 3044.23C6886.97 3079.31 6893.59 3114.02 6906.04 3146.82C6925.47 3197.93 6958.08 3242.98 7000.56 3277.41C7000.04 3280.5 6999.46 3283.6 6998.83 3286.71C6990.1 3329.6 6971.83 3372.63 6960.55 3369.31C6949.52 3366.85 6938.25 3365.61 6926.95 3365.62C6923.52 3365.52 6920.21 3365.48 6917.06 3365.46L6917.05 3365.44C6906.81 3364.26 6896.47 3364.26 6886.24 3365.44C6881.66 3365.76 6877.07 3365.12 6872.75 3363.58C6843.46 3354.36 6812.33 3352.61 6782.19 3358.5C6719.51 3371.35 6624.17 3394.85 6598.03 3422.96C6558.16 3465.89 6500.16 3507.02 6434.9 3685.87C6434.9 3685.87 6402.28 3794.97 6376.9 3809.27C6382.49 3806.38 6388.24 3803.79 6394.12 3801.53C6390.75 3807.44 6386.1 3812.53 6380.52 3816.43C6389.72 3811.73 6399.26 3807.75 6409.07 3804.52C6389.26 3921.05 6418.59 4254.36 6418.59 4254.36C6418.59 4254.36 6395.03 4311.84 6425.84 4345.82C6444.15 4366.01 6454.1 4397.5 6459.19 4419.79C6457.76 4422.02 6456.27 4424.34 6454.73 4426.73V4426.76C6438.42 4452.05 6416.59 4485.03 6402.28 4503.2C6376.9 4535.4 6384.15 4637.34 6384.15 4637.34C6384.15 4637.34 6378.71 4685.63 6360.59 4703.51C6342.46 4721.4 6346.09 4787.57 6346.09 4787.57L6298.96 4961.05C6298.96 4961.05 6255.46 5000.4 6255.46 5018.29C6255.46 5036.17 6221.02 5086.25 6221.02 5086.25C6221.02 5086.25 6168.45 5172.09 6221.02 5159.58C6240.18 5153.97 6258.16 5144.92 6274.09 5132.89L6274.06 5134.18C6273.99 5137.32 6273.92 5140.52 6273.87 5143.76C6272.39 5237.27 6282.57 5368.83 6351.52 5368.83C6458.47 5368.83 6733.98 5495.81 6733.98 5495.81C6790.17 5538.73 6866.3 5524.43 6866.3 5524.43C6866.3 5524.43 6732.17 5658.56 6735.79 5714C6739.42 5769.45 6659.66 5860.66 6659.66 5860.66L6413.15 6341.76C6414.53 6375.28 6420.47 6408.46 6430.82 6440.37C6429.65 6441.39 6428.43 6442.37 6427.29 6443.42C6332.56 6529.94 6324.33 6701.24 6324.33 6701.24L6302.58 6788.88L6632.47 6933.75C6632.47 6933.75 7060.24 6942.69 7134.56 6923.01C7208.88 6903.34 7192.56 6821.07 7094.68 6804.97C6996.8 6788.88 6973.24 6745.95 6940.61 6726.28C6918.61 6713.01 6840.45 6627.24 6791.95 6572.87C6791.2 6572.03 6790.53 6571.28 6789.81 6570.46L6801.04 6508.09C6822.8 6497.36 6855.42 6390.05 6855.42 6390.05C6855.42 6390.05 6855.42 6347.12 6877.17 6334.6C6898.92 6322.08 6944.24 6193.32 6944.24 6193.32C6944.24 6193.32 7042.12 6030.56 7036.68 6009.1C7031.24 5987.64 7107.37 5878.54 7107.37 5878.54C7107.37 5878.54 7236.06 5753.35 7230.63 5730.99C7225.19 5708.64 7333.94 5594.17 7333.94 5594.17C7373.24 5564.18 7405.99 5526.47 7430.19 5483.36C7439.98 5481.79 7450.49 5480.1 7461.59 5478.24C7603.91 5454.92 7840.42 5412.75 7866.84 5401.02C7903.09 5384.92 7895.85 5456.46 7881.34 5517.27C7866.84 5578.08 7855.97 5869.6 7872.28 5907.16C7888.59 5944.72 7881.34 6005.52 7881.34 6005.52L7859.59 6332.82L7874.09 6402.57C7874.09 6402.57 7825.15 6441.91 7845.09 6465.16C7865.03 6488.41 7846.91 6588.57 7846.91 6588.57C7848.62 6587.94 7850.65 6587.32 7852.92 6586.71C7851.18 6590.63 7849.52 6594.67 7848.03 6598.91C7819.93 6678.99 7836.03 6810.34 7836.03 6810.34V6914.07C7836.03 6914.07 8338.12 6923.01 8448.68 6923.01C8559.25 6923.01 8711.51 6869.36 8720.57 6826.44C8729.63 6783.51 8593.69 6747.74 8542.94 6745.96ZM7114.9 4884.07L7082.01 4886.83C7092.91 4885.25 7103.89 4884.32 7114.9 4884.07V4884.07ZM7315.42 3511.29C7320.03 3490.6 7325.62 3468.35 7331.78 3445.52L7315.42 3511.29ZM7377.45 4934.23C7346.08 4946.64 7311.17 4946.68 7279.78 4934.33L7279.57 4934.23C7279.57 4934.23 7281.38 4809.03 7295.88 4757.17C7310.38 4705.3 7330.32 4610.51 7330.32 4610.51C7330.32 4610.51 7346.63 4479.95 7362.94 4420.93C7379.26 4361.91 7442.7 4032.83 7475.33 4011.37C7507.95 3989.91 7526.08 4027.47 7526.08 4027.47C7526.08 4027.47 7530.95 4027.37 7539.12 4026.46C7540.65 4029.89 7542.38 4033.54 7544.31 4037.41C7582.99 4115.57 7696.46 4276.07 7696.46 4276.07C7730.12 4296.83 7758.63 4324.96 7779.84 4358.34C7810.65 4410.2 7819.72 4531.82 7819.72 4531.82C7819.72 4531.82 7888.59 4801.88 7921.22 4839.44C7937.54 4858.22 7930.28 4869.41 7918.97 4875.89C7895.86 4888.54 7876.21 4906.68 7861.77 4928.72C7857.12 4936.08 7852.21 4944.18 7847.22 4952.8C7834.75 4949.91 7823.58 4946.91 7814.28 4943.78C7725.46 4913.94 7426.39 4912.76 7377.45 4934.23V4934.23Z" fill="url(#paint0_linear)"/>
<path d="M7824.14 6811.39V6914.25C7824.14 6914.25 8315.44 6923.12 8423.63 6923.12C8531.82 6923.12 8680.8 6869.91 8689.67 6827.35C8698.54 6784.79 8565.52 6749.32 8515.86 6747.54C8466.19 6745.77 8464.42 6726.26 8400.57 6692.56C8364.53 6673.55 8309.8 6618.32 8269 6573.88C8237.54 6539.58 8214.34 6511.67 8214.34 6511.67C8214.34 6511.67 7950.07 6506.35 7873.8 6548.91C7856.24 6558.73 7844.11 6577.96 7835.88 6601.72C7808.39 6681.14 7824.14 6811.39 7824.14 6811.39Z" fill="#434175"/>
<path opacity="0.1" d="M7835.88 6601.72C7891.29 6582.46 8215.68 6574.98 8269 6573.88C8237.54 6539.58 8214.34 6511.67 8214.34 6511.67C8214.34 6511.67 7950.06 6506.35 7873.8 6548.91C7856.24 6558.73 7844.11 6577.96 7835.88 6601.72Z" fill="black"/>
<path d="M6410.54 4961.62C6410.54 4961.62 6420.79 4967.83 6439.2 4978.93C6442.54 4980.91 6446.12 4983.11 6449.95 4985.42C6461.62 4992.48 6475.63 5000.88 6491.63 5010.53C6714.54 5144.86 7322.62 5508.99 7355.89 5506.09C7364.62 5505.34 7390.83 5501.4 7427.01 5495.52C7436.59 5493.96 7446.88 5492.29 7457.73 5490.44C7597 5467.32 7828.43 5425.5 7854.29 5413.86C7889.76 5397.9 7882.66 5468.84 7868.47 5529.14C7854.29 5589.44 7843.64 5878.52 7859.61 5915.77C7875.57 5953.01 7868.47 6013.31 7868.47 6013.31L7847.19 6337.86L7861.38 6407.03C7861.38 6407.03 7813.49 6446.05 7833 6469.1C7852.51 6492.16 7834.77 6591.47 7834.77 6591.47C7891.53 6570.19 8276.41 6563.1 8276.41 6563.1C8276.41 6563.1 8260.45 6421.22 8274.64 6387.52C8288.83 6353.82 8278.19 6153.42 8278.19 6153.42C8278.19 6153.42 8287.05 6000.9 8271.09 5965.43C8255.13 5929.96 8276.41 5702.95 8276.41 5702.95C8276.41 5702.95 8290.6 5568.16 8294.15 5293.27C8297.7 5018.37 8138.07 5009.5 8138.07 5009.5C8138.07 5009.5 8116.78 5007.84 8084.47 5004.72C8021.26 4998.65 7915.9 4987.05 7845.52 4971.76C7831.1 4968.78 7816.85 4965.01 7802.85 4960.45C7715.94 4930.87 7423.29 4929.7 7375.4 4950.98C7344.74 4963.28 7310.52 4963.32 7279.84 4951.08L7279.62 4950.98L7242.38 4890.68L6886.62 4921.01L6848.91 4924.23L6498.69 4954.1L6474.6 4956.16L6410.54 4961.62Z" fill="#565387"/>
<path opacity="0.1" d="M7836.56 5233.67C7939.89 5284.04 8038.5 5105.48 8084.48 5004.71C8021.26 4998.65 7915.91 4987.05 7845.53 4971.76C7799.24 5049.44 7737.48 5185.4 7836.56 5233.67Z" fill="black"/>
<path d="M7526.16 4026.98C7528.32 4039.17 7532.56 4050.91 7538.68 4061.67C7576.53 4139.17 7687.56 4298.33 7687.56 4298.33C7720.59 4318.99 7748.48 4346.88 7769.15 4379.91C7799.3 4431.34 7808.17 4551.94 7808.17 4551.94C7808.17 4551.94 7875.57 4819.74 7907.49 4856.98C7923.46 4875.6 7916.36 4886.71 7905.29 4893.13C7882.61 4905.73 7863.39 4923.72 7849.32 4945.52C7802.81 5020.29 7728.57 5168.59 7833 5219.49C7974.89 5288.65 8107.91 4926.15 8107.91 4926.15C8107.91 4926.15 8081.31 4668.99 8074.21 4624.65C8067.12 4580.31 8024.55 4397.64 8024.55 4397.64C8024.55 4397.64 7994.4 4319.61 7976.66 4264.63C7958.93 4209.65 7905.72 4145.8 7905.72 4145.8C7905.72 4145.8 7809.94 3954.26 7783.34 3925.89C7770.99 3912.73 7753.68 3896.13 7738.68 3882.12C7721.33 3865.91 7707.07 3853.18 7707.07 3853.18C7707.07 3853.18 7524.39 3984.41 7526.16 4026.98Z" fill="#EE8E9E"/>
<path d="M6323.64 6790.11L6646.44 6933.76C6646.44 6933.76 7065.02 6942.63 7137.74 6923.12C7210.46 6903.61 7194.5 6822.03 7098.72 6806.07C7002.94 6790.11 6979.89 6747.54 6947.96 6728.03C6926.43 6714.88 6849.95 6629.82 6802.49 6575.9C6779.64 6549.94 6763.5 6531.17 6763.5 6531.17C6763.5 6531.17 6701.42 6366.24 6529.38 6403.48C6497.98 6410.27 6469.04 6425.5 6445.67 6447.54C6352.97 6533.34 6344.92 6703.21 6344.92 6703.21L6323.64 6790.11Z" fill="#434175"/>
<path opacity="0.1" d="M6449.95 4985.42C6461.62 4992.48 6475.63 5000.88 6491.63 5010.53C6714.54 5144.86 7322.62 5508.99 7355.89 5506.09C7364.62 5505.34 7390.83 5501.4 7427.02 5495.52C7436.59 5493.96 7446.88 5492.29 7457.74 5490.44C7458.16 5489.77 7458.55 5489.1 7458.94 5488.42C7476.81 5457.23 7490.46 5423.81 7499.56 5389.03C7536.81 5247.15 7352.35 5138.97 7352.35 5138.97L7313.33 5108.64C7268.99 5033.98 6949.73 4963.39 6949.73 4963.39L6908.58 4935.76L6886.62 4921L6880.84 4917.14L6830.89 4883.58L6580.81 4901.32L6506.53 4949.06L6498.69 4954.1L6471.13 4971.83L6449.95 4985.42Z" fill="black"/>
<path opacity="0.1" d="M6445.66 6447.54C6513.56 6682.35 6797.2 6605.66 6797.2 6605.66L6802.48 6575.9C6779.64 6549.94 6763.5 6531.17 6763.5 6531.17C6763.5 6531.17 6701.42 6366.24 6529.38 6403.48C6497.98 6410.27 6469.03 6425.5 6445.66 6447.54V6447.54Z" fill="black"/>
<path d="M6371.52 5381.94C6476.17 5381.94 6745.76 5507.86 6745.76 5507.86C6800.74 5550.42 6875.24 5536.24 6875.24 5536.24C6875.24 5536.24 6743.99 5669.25 6747.54 5724.23C6751.08 5779.21 6673.04 5869.66 6673.04 5869.66L6431.83 6346.73C6449.56 6685.47 6797.2 6591.47 6797.2 6591.47L6811.39 6511.67C6832.67 6501.02 6864.6 6394.61 6864.6 6394.61C6864.6 6394.61 6864.6 6352.05 6885.88 6339.64C6907.16 6327.22 6951.5 6199.53 6951.5 6199.53C6951.5 6199.53 7047.28 6038.14 7041.96 6016.86C7036.64 5995.57 7111.13 5887.39 7111.13 5887.39C7111.13 5887.39 7237.06 5763.25 7231.74 5741.08C7226.42 5718.91 7332.84 5605.4 7332.84 5605.4C7371.38 5575.56 7403.43 5538.17 7427.02 5495.52C7444.88 5464.32 7458.54 5430.9 7467.63 5396.13C7497.64 5281.88 7383.85 5189.44 7338.41 5157.84C7327.41 5150.18 7320.42 5146.06 7320.42 5146.06L7281.4 5115.74C7261.25 5081.76 7184.21 5048.66 7106.2 5022.66C7049.94 5003.9 6993.15 4988.82 6956.86 4979.78C6932.85 4973.82 6917.81 4970.49 6917.81 4970.49L6876.66 4942.86L6862.18 4933.14L6848.92 4924.23L6798.97 4890.68L6687.69 4898.55L6548.89 4908.41L6474.61 4956.16L6439.21 4978.93L6300.58 5068.03C6300.58 5068.03 6296.92 5102.15 6295.75 5147.94C6295.68 5151.49 6295.61 5155.07 6295.54 5158.76C6294.09 5251.48 6304.05 5381.94 6371.52 5381.94Z" fill="#565387"/>
<path d="M6905.39 3395.61L6942.64 3528.62C6942.64 3528.62 7008.26 3757.41 7015.36 3773.37C7022.45 3789.33 7194.49 3950.72 7201.59 3954.26C7208.68 3957.81 7302.37 4011.02 7302.37 4011.02C7302.37 4011.02 7309.78 3718.39 7302.69 3633.26C7302.07 3614.56 7303.62 3595.85 7307.3 3577.5C7318.61 3510.78 7347.24 3412.95 7370.97 3337.61C7390.84 3274.48 7407.33 3227.12 7407.33 3227.12C7407.33 3227.12 6992.3 3209.39 7006.49 3250.18C7011.84 3265.61 7010.11 3291.4 7004.93 3317.25C6996.38 3359.78 6978.5 3402.45 6967.47 3399.16C6956.68 3396.72 6945.65 3395.49 6934.58 3395.5C6919.26 3395.04 6905.39 3395.61 6905.39 3395.61Z" fill="#EE8E9E"/>
<path opacity="0.1" d="M7004.93 3317.25C7055.63 3359.57 7118.63 3384.41 7184.58 3388.08C7250.52 3391.74 7315.89 3374.05 7370.97 3337.62C7390.84 3274.48 7407.33 3227.12 7407.33 3227.12C7407.33 3227.12 6992.3 3209.39 7006.49 3250.18C7011.84 3265.61 7010.11 3291.4 7004.93 3317.25Z" fill="black"/>
<path d="M7508.46 3071.13C7508.48 3103.67 7503.3 3136 7493.12 3166.91C7490.55 3174.89 7487.59 3182.73 7484.25 3190.41C7460.35 3246.99 7420.03 3295.11 7368.49 3328.52C7316.95 3361.93 7256.56 3379.11 7195.15 3377.83C7133.74 3376.55 7074.13 3356.87 7024.03 3321.34C6973.92 3285.81 6935.64 3236.06 6914.12 3178.53C6901.94 3145.97 6895.46 3111.56 6894.96 3076.8C6894.79 3074.94 6894.79 3072.99 6894.79 3071.13C6894.79 2989.75 6927.11 2911.72 6984.66 2854.18C7042.2 2796.64 7120.25 2764.31 7201.62 2764.31C7283 2764.31 7361.05 2796.64 7418.59 2854.18C7476.13 2911.72 7508.46 2989.75 7508.46 3071.13H7508.46Z" fill="#EE8E9E"/>
<path opacity="0.1" d="M6905.39 3395.61L6942.64 3528.62C6942.64 3528.62 7008.26 3757.41 7015.36 3773.37C7022.45 3789.33 7194.49 3950.72 7201.59 3954.27C7208.68 3957.81 7302.37 4011.02 7302.37 4011.02C7302.37 4011.02 7309.78 3718.39 7302.69 3633.26C7302.07 3614.56 7303.62 3595.85 7307.3 3577.5L7283.18 3675.82L7284.95 3872.68L7299.14 3883.32L7267.21 3931.21V3895.74C7267.21 3895.74 7153.7 3785.78 7135.96 3739.67C7118.23 3693.56 7054.38 3610.06 7054.38 3610.06C7054.38 3610.06 6981.66 3487.83 6979.88 3466.55C6978.5 3449.95 6947.96 3411.57 6934.58 3395.5C6919.26 3395.04 6905.39 3395.61 6905.39 3395.61Z" fill="black"/>
<path opacity="0.1" d="M7526.16 4026.98C7528.32 4039.17 7532.56 4050.91 7538.68 4061.67C7577.45 4057.7 7709.59 4033.04 7738.68 3882.12C7721.33 3865.91 7707.07 3853.17 7707.07 3853.17C7707.07 3853.17 7524.39 3984.41 7526.16 4026.98Z" fill="black"/>
<path opacity="0.1" d="M6295.54 5158.76C6331.33 5133.44 6365.38 5098.89 6385.71 5089.31C6415.86 5075.12 6461.98 5029.01 6461.98 5029.01C6461.98 5029.01 6473.68 5021.07 6491.63 5010.53C6524.55 4991.24 6578.5 4963.29 6619.83 4959.85C6656.86 4956.76 6779.88 4948.89 6876.65 4942.86C6946.68 4938.46 7002.94 4935.02 7002.94 4935.02C7002.94 4935.02 7118.22 4894.23 7167.88 4920.83C7203.45 4938.65 7240.94 4952.33 7279.62 4961.62C7279.62 4961.62 7279.66 4957.75 7279.84 4951.08L7279.62 4950.98L7242.38 4890.68L6848.91 4924.23L6798.97 4890.68L6548.88 4908.41L6474.6 4956.16L6410.54 4961.62C6410.54 4961.62 6420.79 4967.83 6439.2 4978.93L6300.57 5068.03C6300.57 5068.03 6296.32 5107.65 6295.54 5158.76Z" fill="black"/>
<path d="M6243.82 5174.44C6262.6 5168.86 6280.2 5159.89 6295.76 5147.98V5147.94C6331.48 5122.65 6365.42 5088.21 6385.71 5078.67C6415.87 5064.48 6461.98 5018.37 6461.98 5018.37C6461.98 5018.37 6555.98 4954.52 6619.84 4949.2C6637.25 4947.75 6673.65 4945.23 6717.39 4942.39C6762.15 4939.41 6814.55 4936.08 6862.19 4933.14C6889.64 4931.4 6915.5 4929.77 6937.35 4928.42C6976.52 4926.01 7002.94 4924.37 7002.94 4924.37C7002.94 4924.37 7118.23 4883.58 7167.89 4910.19C7203.46 4928 7240.95 4941.69 7279.63 4950.98C7279.63 4950.98 7281.41 4826.83 7295.59 4775.4C7309.78 4723.97 7329.29 4629.97 7329.29 4629.97C7329.29 4629.97 7345.26 4500.51 7361.22 4441.98C7377.18 4383.45 7439.26 4057.13 7471.18 4035.85C7503.11 4014.56 7520.85 4051.81 7520.85 4051.81C7520.85 4051.81 7733.68 4048.26 7737.23 3814.16C7737.23 3814.16 7637.91 3714.84 7630.81 3690.01C7623.72 3665.18 7529.72 3572.96 7529.72 3572.96C7529.72 3572.96 7476.51 3473.64 7416.2 3471.87C7387.71 3470.23 7359.12 3471.11 7330.78 3474.5L7279.63 3682.92L7281.41 3879.78L7295.59 3890.42L7263.67 3938.3V3902.83C7263.67 3902.83 7150.16 3792.88 7132.42 3746.76C7114.68 3700.65 7050.83 3617.16 7050.83 3617.16C7050.83 3617.16 6978.11 3494.93 6976.34 3473.64C6974.57 3452.36 6924.9 3395.33 6924.9 3395.33C6914.89 3394.15 6904.77 3394.15 6894.75 3395.33C6890.27 3395.64 6885.78 3395.01 6881.56 3393.48C6852.92 3384.33 6822.43 3382.6 6792.94 3388.44C6731.61 3401.18 6638.32 3424.48 6612.74 3452.36C6573.72 3494.93 6516.97 3535.72 6453.11 3713.07L6797.2 3837.21L6767.76 3893.18L6493.91 4413.6C6493.91 4413.6 6484.83 4428.39 6472.52 4447.73V4447.76C6456.55 4472.84 6435.2 4505.54 6421.19 4523.56C6396.36 4555.48 6403.45 4656.57 6403.45 4656.57C6403.45 4656.57 6398.13 4704.46 6380.39 4722.19C6362.66 4739.93 6366.21 4805.55 6366.21 4805.55L6320.09 4977.58C6320.09 4977.58 6277.52 5016.6 6277.52 5034.33C6277.52 5052.07 6243.82 5101.73 6243.82 5101.73C6243.82 5101.73 6192.39 5186.85 6243.82 5174.44Z" fill="#434175"/>
<path opacity="0.1" d="M8060.03 5302.13C8060.03 5302.13 7948.29 5339.38 7918.14 5392.58C7887.99 5445.79 8060.03 5302.13 8060.03 5302.13Z" fill="black"/>
<path opacity="0.1" d="M8003.27 5185.08C7999.73 5190.4 7850.23 5340.4 7859.61 5376.62C7868.99 5412.84 8003.27 5185.08 8003.27 5185.08Z" fill="black"/>
<path opacity="0.1" d="M7182.07 5291.49C7182.07 5291.49 7015.35 5370.11 7001.16 5404.4C6986.97 5438.69 7182.07 5291.49 7182.07 5291.49Z" fill="black"/>
<path opacity="0.1" d="M7171.44 5392.58C7171.44 5392.58 7020.97 5456.43 7000.43 5472.39C6979.88 5488.35 7171.44 5392.58 7171.44 5392.58Z" fill="black"/>
<path opacity="0.1" d="M7102.26 5529.14C7102.26 5529.14 7035.63 5578.8 6998.89 5539.78C6962.15 5500.76 7102.26 5529.14 7102.26 5529.14Z" fill="black"/>
<path opacity="0.1" d="M7352.37 4234.48C7348.8 4239.8 7127.09 4638.84 7068.56 4668.99C7010.03 4699.14 7352.37 4234.48 7352.37 4234.48Z" fill="black"/>
<path opacity="0.1" d="M7341.7 4385.23C7341.7 4394.1 7125.32 4856.98 7089.85 4862.3C7054.37 4867.62 7341.7 4385.23 7341.7 4385.23Z" fill="black"/>
<path opacity="0.1" d="M6518.73 4683.18C6518.73 4683.18 6414.22 4906.33 6373.29 4919.05C6332.36 4931.78 6518.73 4683.18 6518.73 4683.18Z" fill="black"/>
<path opacity="0.1" d="M6501 4583.86C6501 4583.86 6464.98 4661.9 6443.08 4661.9C6421.19 4661.9 6501 4583.86 6501 4583.86Z" fill="black"/>
<path opacity="0.1" d="M7508.46 3071.13C7508.48 3103.67 7503.3 3136 7493.12 3166.91C7490.56 3174.89 7487.59 3182.73 7484.25 3190.41C7468.49 3188.02 7453.65 3181.51 7441.23 3171.52C7428.06 3162.6 7417.06 3150.84 7409.04 3137.11C7402.98 3122.48 7397.74 3107.53 7393.34 3092.32C7386.26 3075.16 7374.73 3060.2 7359.93 3048.99C7345.13 3037.78 7327.6 3030.72 7309.17 3028.56C7319.36 3045.94 7303.13 3069.8 7283.18 3072.9C7263.22 3075.92 7243.8 3064.03 7230.05 3049.22C7216.3 3034.41 7206.37 3016.41 7192.71 3001.6C7178.96 2986.79 7159.54 2974.9 7139.58 2977.92C7121.93 2980.58 7108.27 2994.06 7093.46 3004.08C7078.74 3014.1 7058.07 3020.84 7043.79 3010.11C7035.81 3004.17 7031.91 2994.06 7024.28 2987.58C7004.68 2971.18 6974.17 2988.12 6959.71 3009.31C6937.45 3042.13 6923.88 3061.99 6894.96 3076.8C6894.79 3074.94 6894.79 3072.99 6894.79 3071.13C6894.79 2989.75 6927.11 2911.72 6984.66 2854.18C7042.2 2796.64 7120.25 2764.31 7201.62 2764.31C7283 2764.31 7361.05 2796.64 7418.59 2854.18C7476.13 2911.72 7508.46 2989.75 7508.46 3071.13Z" fill="black"/>
<path d="M6959.75 3000.44C6974.18 2979.23 7004.67 2962.27 7024.33 2978.76C7031.96 2985.16 7035.85 2995.28 7043.8 3001.27C7058.06 3012.01 7078.75 3005.27 7093.5 2995.21C7108.24 2985.15 7121.94 2971.73 7139.58 2969.05C7159.54 2966.01 7178.99 2977.91 7192.7 2992.73C7206.41 3007.56 7216.35 3025.54 7230.06 3040.36C7243.77 3055.18 7263.23 3067.06 7283.19 3064.01C7303.14 3060.95 7319.41 3037.07 7309.16 3019.69C7327.59 3021.86 7345.11 3028.91 7359.9 3040.12C7374.7 3051.33 7386.23 3066.29 7393.31 3083.45C7397.72 3098.65 7402.96 3113.6 7409.02 3128.23C7417.05 3141.96 7428.07 3153.71 7441.25 3162.61C7457.53 3174.54 7477.25 3184.6 7497.13 3181.14C7517.02 3177.68 7533.84 3154.9 7524.6 3136.96C7530.96 3146.61 7544.6 3133.17 7546.66 3121.8C7551.16 3096.87 7549.75 3071.24 7542.56 3046.95C7532.76 3013.98 7512.2 2981.29 7520.12 2947.82C7526.39 2921.33 7549.04 2902.3 7562.78 2878.8C7587.15 2837.13 7580.69 2781 7551.05 2742.89C7535.64 2724.22 7516.06 2709.43 7493.89 2699.71C7471.71 2689.99 7447.56 2685.61 7423.39 2686.94C7410.06 2688.47 7396.62 2688.72 7383.24 2687.69C7360.98 2684.38 7342.15 2670.05 7324.4 2656.2L7175.84 2540.24C7159.31 2525.67 7140.28 2514.21 7119.68 2506.41C7098.69 2499.9 7073.52 2502.14 7057.98 2517.69C7030.16 2545.5 7047.84 2593.37 7036.67 2631.09C7027 2663.76 6995.87 2685.89 6963.63 2696.93C6931.4 2707.96 6896.91 2710.38 6863.78 2718.37C6853.91 2720 6844.67 2724.3 6837.06 2730.81C6828.47 2741.41 6824.31 2754.92 6825.45 2768.52C6825.24 2801.89 6833.16 2834.8 6848.52 2864.42C6865.72 2897.51 6892.99 2931.51 6883.34 2967.53C6878.23 2986.6 6863.54 3001.28 6850.59 3016.18C6822.52 3048.46 6813.04 3096.17 6865.87 3079.51C6916.76 3063.45 6931.03 3042.65 6959.75 3000.44Z" fill="#434175"/>
<g opacity="0.1">
<path opacity="0.1" d="M7546.68 3086.84C7544.61 3098.2 7530.97 3111.64 7524.62 3101.99C7533.86 3119.93 7517.03 3142.71 7497.15 3146.17C7477.27 3149.63 7457.55 3139.57 7441.27 3127.64C7428.09 3118.74 7417.07 3106.99 7409.03 3093.26C7402.98 3078.64 7397.73 3063.69 7393.32 3048.48C7386.24 3031.33 7374.71 3016.37 7359.92 3005.16C7345.13 2993.95 7327.61 2986.89 7309.17 2984.72C7319.43 3002.11 7303.16 3025.99 7283.2 3029.04C7263.24 3032.1 7243.78 3020.21 7230.07 3005.39C7216.36 2990.57 7206.43 2972.59 7192.72 2957.77C7179.01 2942.94 7159.56 2931.05 7139.6 2934.09C7121.96 2936.77 7108.26 2950.19 7093.52 2960.25C7078.77 2970.31 7058.08 2977.04 7043.82 2966.3C7035.87 2960.31 7031.97 2950.19 7024.35 2943.79C7004.69 2927.3 6974.2 2944.26 6959.77 2965.47C6931.05 3007.68 6916.78 3028.49 6865.89 3044.54C6849.18 3049.81 6838.74 3048.62 6833.11 3043.54C6821.94 3069.18 6827.03 3091.77 6865.89 3079.51C6916.78 3063.45 6931.05 3042.65 6959.77 3000.44C6974.2 2979.23 7004.69 2962.27 7024.35 2978.76C7031.97 2985.16 7035.87 2995.28 7043.82 3001.27C7058.08 3012.01 7078.77 3005.27 7093.52 2995.21C7108.26 2985.16 7121.96 2971.74 7139.6 2969.05C7159.56 2966.01 7179.01 2977.91 7192.72 2992.73C7206.43 3007.56 7216.36 3025.54 7230.07 3040.36C7243.78 3055.18 7263.25 3067.06 7283.2 3064.01C7303.16 3060.95 7319.43 3037.08 7309.17 3019.69C7327.61 3021.86 7345.13 3028.92 7359.92 3040.12C7374.71 3051.33 7386.24 3066.29 7393.32 3083.45C7397.73 3098.65 7402.98 3113.6 7409.03 3128.23C7417.07 3141.96 7428.09 3153.71 7441.27 3162.61C7457.55 3174.54 7477.27 3184.6 7497.15 3181.14C7517.03 3177.68 7533.86 3154.9 7524.62 3136.96C7530.97 3146.61 7544.61 3133.17 7546.68 3121.8C7549.44 3106.49 7549.97 3090.87 7548.28 3075.41C7547.87 3079.23 7547.36 3083.05 7546.68 3086.84Z" fill="black"/>
<path opacity="0.1" d="M6882.9 2933.91C6883.04 2933.46 6883.24 2933.03 6883.36 2932.57C6893.01 2896.55 6865.74 2862.54 6848.54 2829.46C6836.47 2806.13 6828.99 2780.7 6826.49 2754.55C6825.83 2759.18 6825.49 2763.85 6825.48 2768.52C6825.26 2801.89 6833.18 2834.8 6848.54 2864.42C6860.3 2887.04 6876.75 2910.09 6882.9 2933.91Z" fill="black"/>
<path opacity="0.1" d="M7562.81 2843.83C7549.06 2867.34 7526.42 2886.36 7520.15 2912.86C7517.72 2924.07 7517.82 2935.68 7520.46 2946.84C7527.06 2920.87 7549.24 2902 7562.81 2878.8C7575.61 2856.07 7580.42 2829.71 7576.47 2803.92C7574.54 2817.98 7569.9 2831.54 7562.81 2843.83V2843.83Z" fill="black"/>
</g>
<path opacity="0.1" d="M6472.51 4447.73V4447.76C6474.87 4457.55 6476.69 4467.46 6477.94 4477.45C6477.94 4477.45 6618.06 4805.55 6635.8 4825.06C6641.26 4831.05 6661.83 4860.56 6687.69 4898.55C6697.06 4912.28 6707.1 4927.14 6717.38 4942.39C6771.02 5021.99 6830.9 5112.37 6830.9 5112.37L6962.15 5227.64C6962.15 5227.64 7247.67 5250.49 7338.41 5157.84C7327.41 5150.18 7320.42 5146.06 7320.42 5146.06L7281.4 5115.74C7261.25 5081.76 7184.21 5048.66 7106.2 5022.66C7034.33 5023.19 6975.55 5029.01 6975.55 5029.01L6956.86 4979.78L6937.35 4928.42L6838.13 4667.22C6838.13 4667.22 6774.14 4337.34 6752.86 4321.38C6731.57 4305.42 6736.89 4255.76 6736.89 4255.76C6736.89 4255.76 6775.91 4115.65 6761.72 4096.15C6747.54 4076.64 6784.78 3932.98 6784.78 3932.98C6781.08 3918.96 6775.34 3905.55 6767.75 3893.18L6493.9 4413.6C6493.9 4413.6 6484.82 4428.39 6472.51 4447.73Z" fill="black"/>
<path d="M6788.32 3922.34C6788.32 3922.34 6751.08 4066 6765.27 4085.5C6779.46 4105.01 6740.44 4245.12 6740.44 4245.12C6740.44 4245.12 6735.12 4294.78 6756.4 4310.74C6777.68 4326.7 6841.67 4656.58 6841.67 4656.58L6979.09 5018.37C6979.09 5018.37 7409.1 4975.81 7364.76 5110.59C7320.42 5245.38 6965.69 5217 6965.69 5217L6834.44 5101.73C6834.44 5101.73 6657.08 4833.93 6639.34 4814.42C6621.6 4794.91 6481.49 4466.81 6481.49 4466.81C6481.49 4466.81 6474.39 4401.19 6444.24 4367.49C6414.09 4333.8 6437.14 4276.8 6437.14 4276.8C6437.14 4276.8 6399.9 3847.85 6438.92 3796.42C6477.94 3744.99 6747.53 3768.05 6788.32 3922.34Z" fill="#EE8E9E"/>
<path opacity="0.1" d="M6568.39 3652.77L6456.65 3720.16C6456.65 3720.16 6424.73 3828.35 6399.9 3842.53C6399.9 3842.53 6623.38 3718.39 6791.87 4003.92C6791.87 4003.92 6786.55 3966.68 6809.61 3948.94C6832.67 3931.21 6827.34 3854.95 6827.34 3854.95C6833.48 3842.9 6838.81 3830.46 6843.31 3817.7C6859.27 3778.69 6775.91 3555.22 6568.39 3652.77Z" fill="black"/>
<path d="M6564.85 3645.67L6453.11 3713.07C6453.11 3713.07 6421.18 3821.25 6396.35 3835.44C6396.35 3835.44 6619.83 3711.29 6788.33 3996.83C6788.33 3996.83 6783.01 3959.58 6806.06 3941.85C6829.12 3924.11 6823.8 3847.85 6823.8 3847.85C6829.94 3835.8 6835.27 3823.36 6839.76 3810.61C6855.73 3771.59 6772.36 3548.13 6564.85 3645.67Z" fill="#434175"/>
<path d="M5568.91 6751.56C5752.88 6751.56 5902.02 6593.27 5902.02 6398.01C5902.02 6202.74 5752.88 6044.45 5568.91 6044.45C5384.94 6044.45 5235.8 6202.74 5235.8 6398.01C5235.8 6593.27 5384.94 6751.56 5568.91 6751.56Z" fill="#FBD56F"/>
<path opacity="0.1" d="M5568.91 6751.56C5752.88 6751.56 5902.02 6593.27 5902.02 6398.01C5902.02 6202.74 5752.88 6044.45 5568.91 6044.45C5384.94 6044.45 5235.8 6202.74 5235.8 6398.01C5235.8 6593.27 5384.94 6751.56 5568.91 6751.56Z" fill="black"/>
<path d="M5626.4 6751.56C5810.37 6751.56 5959.51 6596.79 5959.51 6405.88C5959.51 6214.96 5810.37 6060.2 5626.4 6060.2C5442.43 6060.2 5293.29 6214.96 5293.29 6405.88C5293.29 6596.79 5442.43 6751.56 5626.4 6751.56Z" fill="#FBD56F"/>
<path d="M4520.04 6069.27C4538.37 6094.37 4553.36 6121.73 4564.63 6150.69C4567.61 6158.18 4570.53 6166.04 4573.28 6174.3C4617.61 6306.75 4547.38 6465.59 4527.3 6448.46C4507.22 6431.32 4444.65 6399.54 4432.55 6444.21C4420.45 6488.88 4375.76 6534.54 4375.76 6534.54C4294.34 6616.43 4220.64 6527.95 4172.26 6436.53C4156.45 6406.37 4142.4 6375.32 4130.17 6343.54C4119.43 6315.47 4113.26 6296.07 4113.26 6296.07L4452.4 6007.13C4452.4 6007.13 4485.19 6022.18 4520.04 6069.27Z" fill="#2BBD66"/>
<path d="M3985.53 6254.02C4003.86 6279.12 4018.85 6306.49 4030.12 6335.44C4033.1 6342.93 4036.02 6350.8 4038.78 6359.05C4083.1 6491.51 4012.87 6650.35 3992.79 6633.21C3972.71 6616.08 3910.14 6584.29 3898.05 6628.96C3885.95 6673.63 3841.26 6719.29 3841.26 6719.29C3759.83 6801.18 3686.13 6712.7 3637.76 6621.29C3621.95 6591.13 3607.9 6560.08 3595.67 6528.3C3584.93 6500.22 3578.76 6480.82 3578.76 6480.82L3917.89 6191.89C3917.89 6191.89 3950.68 6206.94 3985.53 6254.02Z" fill="#2BBD66"/>
<path d="M2912.31 6509.26C2910.4 6540.28 2904.47 6570.92 2894.67 6600.4C2892.19 6608.07 2889.41 6615.99 2886.27 6624.1C2835.85 6754.36 2680.41 6831.83 2675.88 6805.82C2671.36 6779.82 2643.48 6715.42 2605.65 6742.09C2567.83 6768.76 2504.28 6775.39 2504.28 6775.39C2389.33 6786.48 2389.06 6671.33 2410.16 6570.08C2417.24 6536.77 2426.24 6503.9 2437.11 6471.63C2446.76 6443.16 2454.39 6424.29 2454.39 6424.29L2899.89 6418.26C2899.89 6418.26 2915.53 6450.77 2912.31 6509.26Z" fill="#2BBD66"/>
<path d="M2336.69 6364.1C2334.79 6395.12 2328.86 6425.75 2319.06 6455.24C2316.57 6462.91 2313.8 6470.82 2310.66 6478.94C2260.24 6609.2 2104.8 6686.66 2100.27 6660.66C2095.75 6634.66 2067.87 6570.26 2030.04 6596.93C1992.22 6623.6 1928.67 6630.23 1928.67 6630.23C1813.72 6641.32 1813.45 6526.17 1834.55 6424.92C1841.63 6391.61 1850.63 6358.74 1861.49 6326.47C1871.14 6298 1878.78 6279.12 1878.78 6279.12L2324.28 6273.1C2324.28 6273.1 2339.92 6305.61 2336.69 6364.1Z" fill="#2BBD66"/>
<path opacity="0.2" d="M4520.04 6069.27C4538.37 6094.37 4553.36 6121.73 4564.63 6150.69C4567.61 6158.18 4570.53 6166.04 4573.28 6174.3C4617.61 6306.75 4547.38 6465.59 4527.3 6448.46C4507.22 6431.32 4444.65 6399.54 4432.55 6444.21C4420.45 6488.88 4375.76 6534.54 4375.76 6534.54C4294.34 6616.43 4220.64 6527.95 4172.26 6436.53C4156.45 6406.37 4142.4 6375.32 4130.17 6343.54C4119.43 6315.47 4113.26 6296.07 4113.26 6296.07L4452.4 6007.13C4452.4 6007.13 4485.19 6022.18 4520.04 6069.27Z" fill="black"/>
<path opacity="0.2" d="M3985.53 6254.02C4003.86 6279.12 4018.85 6306.49 4030.12 6335.44C4033.1 6342.93 4036.02 6350.8 4038.78 6359.05C4083.1 6491.51 4012.87 6650.35 3992.79 6633.21C3972.71 6616.08 3910.14 6584.29 3898.05 6628.96C3885.95 6673.63 3841.26 6719.29 3841.26 6719.29C3759.83 6801.18 3686.13 6712.7 3637.76 6621.29C3621.95 6591.13 3607.9 6560.08 3595.67 6528.3C3584.93 6500.22 3578.76 6480.82 3578.76 6480.82L3917.89 6191.89C3917.89 6191.89 3950.68 6206.94 3985.53 6254.02Z" fill="black"/>
<path opacity="0.2" d="M2912.31 6509.26C2910.4 6540.28 2904.47 6570.92 2894.67 6600.4C2892.19 6608.07 2889.41 6615.99 2886.27 6624.1C2835.85 6754.36 2680.41 6831.83 2675.88 6805.82C2671.36 6779.82 2643.48 6715.42 2605.65 6742.09C2567.83 6768.76 2504.28 6775.39 2504.28 6775.39C2389.33 6786.48 2389.06 6671.33 2410.16 6570.08C2417.24 6536.77 2426.24 6503.9 2437.11 6471.63C2446.76 6443.16 2454.39 6424.29 2454.39 6424.29L2899.89 6418.26C2899.89 6418.26 2915.53 6450.77 2912.31 6509.26Z" fill="black"/>
<path opacity="0.2" d="M2336.69 6364.1C2334.79 6395.12 2328.86 6425.75 2319.06 6455.24C2316.57 6462.91 2313.8 6470.82 2310.66 6478.94C2260.24 6609.2 2104.8 6686.66 2100.27 6660.66C2095.75 6634.66 2067.87 6570.26 2030.04 6596.93C1992.22 6623.6 1928.67 6630.23 1928.67 6630.23C1813.72 6641.32 1813.45 6526.17 1834.55 6424.92C1841.63 6391.61 1850.63 6358.74 1861.49 6326.47C1871.14 6298 1878.78 6279.12 1878.78 6279.12L2324.28 6273.1C2324.28 6273.1 2339.92 6305.61 2336.69 6364.1Z" fill="black"/>
<path d="M5424.67 4411.79C5424.67 5601.61 5022.14 6566.15 3164.57 6566.15C1916.34 6566.15 950.653 6256.03 904.462 4411.79C874.669 3222.34 1916.34 2257.43 3164.56 2257.43C4412.79 2257.43 5424.67 3221.97 5424.67 4411.79Z" fill="#2BBD66"/>
<path opacity="0.2" d="M2740.59 2295.04H2740.83C2740.78 2295.07 2740.72 2295.09 2740.65 2295.1L2740.59 2295.04Z" fill="black"/>
<path opacity="0.2" d="M2745.02 2294.31C2750.76 2293.39 2762.11 2291.81 2778.61 2290.55L2741.85 2294.91C2742.38 2294.78 2743.04 2294.64 2743.83 2294.51C2744.23 2294.45 2744.56 2294.38 2745.02 2294.31Z" fill="black"/>
<path opacity="0.2" d="M4415.04 3174.6L4250.07 3233.98C4165.98 3121.21 4075.49 3013.35 3979.06 2910.93C3873.81 2798.68 3758.97 2695.82 3635.85 2603.51C3213.46 2290.49 2886.75 2282.5 2778.86 2290.55L3026.85 2261.39C3261.22 2301.71 3486.62 2383.18 3692.6 2502.03C3836.71 2585.1 3970.93 2684.25 4092.69 2797.57C4308.61 2997.96 4415.04 3174.6 4415.04 3174.6Z" fill="black"/>
<path opacity="0.2" d="M2923.71 3286.77C2923.71 3286.77 2705.95 2560.95 2890.72 2363C2890.72 2363 3181.06 2264.03 3398.83 2824.89L2923.71 3286.77Z" fill="black"/>
<path d="M4026.37 2608.86C4026.37 2608.86 4603.85 2118.16 4859.33 2207.95C4859.33 2207.95 5066.5 2434.16 4640.12 2858.67L4026.37 2608.86Z" fill="#2BBD66"/>
<path opacity="0.2" d="M4026.37 2608.86C4026.37 2608.86 4603.85 2118.16 4859.33 2207.95C4859.33 2207.95 5066.5 2434.16 4640.12 2858.67L4026.37 2608.86Z" fill="black"/>
<path d="M5827.2 4959.45C5827.2 5599.01 5368.23 6104.27 4936.36 6104.27C4504.5 6104.27 4263.28 5599.01 4263.28 4959.45C4263.28 4319.9 4614.1 3826.44 5045.24 3801.44C5728.22 3761.85 5827.2 4319.9 5827.2 4959.45Z" fill="#2BBD66"/>
<path opacity="0.2" d="M5827.2 4959.45C5827.2 5599.01 5368.23 6104.27 4936.36 6104.27C4504.5 6104.27 4263.28 5599.01 4263.28 4959.45C4263.28 4319.9 4614.1 3826.44 5045.24 3801.44C5728.22 3761.85 5827.2 4319.9 5827.2 4959.45Z" fill="black"/>
<path d="M4909.96 5239.88C4990.14 5239.88 5055.13 5157.17 5055.13 5055.13C5055.13 4953.09 4990.14 4870.38 4909.96 4870.38C4829.78 4870.38 4764.78 4953.09 4764.78 5055.13C4764.78 5157.17 4829.78 5239.88 4909.96 5239.88Z" fill="#2BBD66"/>
<path d="M5424.67 5081.52C5504.85 5081.52 5569.84 4998.81 5569.84 4896.77C5569.84 4794.73 5504.85 4712.01 5424.67 4712.01C5344.49 4712.01 5279.5 4794.73 5279.5 4896.77C5279.5 4998.81 5344.49 5081.52 5424.67 5081.52Z" fill="#2BBD66"/>
<path d="M4120.87 2678.4C4120.97 2719.79 4111.32 2760.61 4092.7 2797.57C4068.12 2846.68 4028.23 2886.46 3979.07 2910.93C3873.82 2798.68 3758.98 2695.82 3635.86 2603.51C3646.83 2565.82 3666.24 2531.11 3692.61 2502.03C3715.35 2476.68 3743.16 2456.39 3774.23 2442.47C3805.31 2428.54 3838.97 2421.3 3873.02 2421.2C4009.88 2421.2 4120.87 2536.34 4120.87 2678.4Z" fill="#FAD46F"/>
</g>
<defs>
<linearGradient id="paint0_linear" x1="7459.33" y1="6935.77" x2="7459.33" y2="2465.57" gradientUnits="userSpaceOnUse">
<stop stop-color="#808080" stop-opacity="0.25"/>
<stop offset="0.53514" stop-color="#808080" stop-opacity="0.12"/>
<stop offset="1" stop-color="#808080" stop-opacity="0.1"/>
</linearGradient>
<clipPath id="clip0">
<rect width="9916" height="7120" fill="white"/>
</clipPath>
</defs>
</svg>
